<?xml version="1.0" encoding="utf-8"?>
<!-- Generator: Adobe Illustrator 27.5.0, SVG Export Plug-In . SVG Version: 6.00 Build 0)  -->
<svg version="1.1" id="Ñëîé_1" xmlns="http://www.w3.org/2000/svg" xmlns:xlink="http://www.w3.org/1999/xlink" x="0px" y="0px"
	 viewBox="0 0 2370.031 2200" style="enable-background:new 0 0 2370.031 2200;" xml:space="preserve">
<rect x="0" style="fill:#FFFFFF;" width="2370.031" height="2200"/>
<g>
	<path style="fill:#322A28;" d="M823.611,344.091c0,4.512-0.394,8.886-1.174,13.119c-0.784,4.237-2.278,7.989-4.488,11.256
		c-2.21,3.269-5.364,5.893-9.46,7.872c-4.098,1.979-9.46,2.968-16.089,2.968c-7.734,0-14.272-1.842-19.611-5.523
		c-5.34-3.683-8.793-9.437-10.357-17.262l19.748-4.834c0.276,2.395,1.357,4.418,3.245,6.076c1.887,1.658,4.027,2.485,6.422,2.485
		c2.486,0,4.419-0.62,5.8-1.863c1.381-1.244,2.393-2.784,3.038-4.626c0.644-1.84,1.037-3.844,1.174-6.008
		c0.139-2.162,0.207-4.164,0.207-6.006v-62.7h21.544V344.091z"/>
	<path style="fill:#322A28;" d="M837.007,343.263c0-5.338,0.966-10.172,2.9-14.502c1.933-4.326,4.579-8.031,7.941-11.117
		c3.359-3.084,7.319-5.454,11.876-7.111c4.558-1.658,9.413-2.487,14.57-2.487c5.155,0,10.012,0.83,14.57,2.487
		c4.558,1.658,8.515,4.027,11.877,7.111c3.359,3.086,6.007,6.792,7.941,11.117c1.933,4.329,2.9,9.163,2.9,14.502
		c0,5.34-0.967,10.174-2.9,14.5c-1.934,4.329-4.582,8.033-7.941,11.117c-3.362,3.086-7.319,5.456-11.877,7.113
		c-4.558,1.655-9.414,2.485-14.57,2.485c-5.157,0-10.012-0.83-14.57-2.485c-4.557-1.658-8.516-4.027-11.876-7.113
		c-3.362-3.084-6.008-6.788-7.941-11.117C837.973,353.437,837.007,348.603,837.007,343.263z M857.721,343.263
		c0,5.063,1.451,9.161,4.351,12.29c2.9,3.132,6.974,4.695,12.221,4.695c5.248,0,9.322-1.563,12.222-4.695
		c2.9-3.128,4.35-7.227,4.35-12.29c0-5.063-1.45-9.161-4.35-12.292c-2.9-3.128-6.974-4.695-12.222-4.695
		c-5.248,0-9.321,1.567-12.221,4.695C859.172,334.102,857.721,338.2,857.721,343.263z"/>
	<path style="fill:#322A28;" d="M925.665,272.417h20.715v44.469h0.276c2.393-3.223,5.456-5.5,9.183-6.836
		c3.729-1.334,7.755-2.004,12.085-2.004c4.786,0,9.067,0.991,12.843,2.97c3.774,1.981,6.974,4.626,9.598,7.941
		c2.624,3.313,4.648,7.111,6.076,11.393c1.427,4.281,2.141,8.771,2.141,13.466c0,5.063-0.783,9.714-2.348,13.947
		c-1.566,4.235-3.797,7.897-6.697,10.979c-2.9,3.086-6.377,5.479-10.427,7.182c-4.052,1.702-8.562,2.555-13.534,2.555
		c-2.395,0-4.65-0.323-6.767-0.966c-2.119-0.645-4.073-1.473-5.87-2.487c-1.795-1.011-3.361-2.141-4.695-3.382
		c-1.335-1.244-2.417-2.462-3.245-3.66h-0.276v8.838h-19.058V272.417z M944.723,343.263c0,5.063,1.45,9.161,4.35,12.29
		c2.9,3.132,6.974,4.695,12.222,4.695c5.248,0,9.321-1.563,12.221-4.695c2.9-3.128,4.351-7.227,4.351-12.29
		c0-5.063-1.451-9.161-4.351-12.292c-2.9-3.128-6.974-4.695-12.221-4.695c-5.248,0-9.322,1.567-12.222,4.695
		C946.173,334.102,944.723,338.2,944.723,343.263z"/>
	<path style="fill:#322A28;" d="M1053.958,279.045h21.545v97.776h-21.545V279.045z"/>
	<path style="fill:#322A28;" d="M1092.487,309.704h19.887v9.115h0.276c0.643-1.288,1.564-2.576,2.761-3.867
		c1.196-1.288,2.624-2.437,4.281-3.452c1.657-1.013,3.543-1.84,5.663-2.485c2.117-0.643,4.419-0.968,6.904-0.968
		c5.248,0,9.482,0.809,12.705,2.418c3.222,1.611,5.731,3.844,7.527,6.697c1.795,2.855,3.014,6.214,3.66,10.082
		c0.643,3.868,0.966,8.058,0.966,12.567v37.011h-20.715v-32.869c0-1.933-0.069-3.935-0.208-6.006
		c-0.138-2.071-0.552-3.981-1.243-5.731c-0.69-1.748-1.75-3.176-3.176-4.281c-1.428-1.105-3.476-1.658-6.146-1.658
		c-2.671,0-4.833,0.483-6.49,1.45c-1.658,0.966-2.924,2.258-3.797,3.867c-0.877,1.611-1.451,3.431-1.727,5.454
		c-0.276,2.027-0.414,4.145-0.414,6.353v33.421h-20.716V309.704z"/>
	<path style="fill:#322A28;" d="M1217.467,326.276h-18.229v22.371c0,1.844,0.091,3.523,0.276,5.042
		c0.183,1.519,0.598,2.832,1.243,3.935c0.643,1.105,1.633,1.958,2.969,2.557c1.333,0.599,3.107,0.897,5.317,0.897
		c1.105,0,2.554-0.116,4.35-0.345c1.795-0.229,3.153-0.76,4.074-1.588v17.262c-2.302,0.828-4.695,1.38-7.182,1.657
		c-2.486,0.275-4.926,0.414-7.319,0.414c-3.5,0-6.721-0.37-9.668-1.105c-2.947-0.735-5.524-1.91-7.733-3.521
		c-2.21-1.611-3.936-3.706-5.179-6.284c-1.243-2.578-1.863-5.708-1.863-9.392v-31.9h-13.258v-16.573h13.258v-19.886h20.715v19.886
		h18.229V326.276z"/>
	<path style="fill:#322A28;" d="M1291.489,365.221c-3.314,4.235-7.505,7.506-12.567,9.804c-5.065,2.3-10.313,3.453-15.743,3.453
		c-5.157,0-10.012-0.83-14.57-2.485c-4.558-1.658-8.518-4.027-11.877-7.113c-3.362-3.084-6.007-6.788-7.941-11.117
		c-1.934-4.326-2.9-9.16-2.9-14.5c0-5.338,0.966-10.172,2.9-14.502c1.934-4.326,4.579-8.031,7.941-11.117
		c3.359-3.084,7.319-5.454,11.877-7.111s9.413-2.487,14.57-2.487c4.786,0,9.135,0.83,13.05,2.487
		c3.913,1.658,7.227,4.027,9.943,7.111c2.715,3.086,4.81,6.792,6.284,11.117c1.471,4.329,2.209,9.163,2.209,14.502v6.489h-48.059
		c0.829,3.96,2.625,7.113,5.386,9.46c2.762,2.349,6.167,3.523,10.219,3.523c3.405,0,6.283-0.76,8.632-2.279
		c2.348-1.519,4.395-3.475,6.145-5.87L1291.489,365.221z M1273.95,335.667c0.09-3.498-1.06-6.491-3.453-8.977
		c-2.396-2.485-5.479-3.729-9.253-3.729c-2.302,0-4.328,0.37-6.076,1.105c-1.75,0.737-3.246,1.681-4.488,2.832
		c-1.243,1.151-2.21,2.485-2.9,4.004c-0.69,1.519-1.083,3.107-1.174,4.764H1273.95z"/>
	<path style="fill:#322A28;" d="M1300.188,309.704h22.372l16.987,45.574h0.276l15.743-45.574h20.853l-26.516,67.118h-21.957
		L1300.188,309.704z"/>
	<path style="fill:#322A28;" d="M1382.633,288.574c0-3.313,1.174-6.145,3.522-8.492c2.348-2.349,5.178-3.523,8.493-3.523
		c3.314,0,6.146,1.174,8.493,3.523c2.348,2.347,3.521,5.178,3.521,8.492c0,3.315-1.173,6.147-3.521,8.493
		c-2.348,2.349-5.179,3.523-8.493,3.523c-3.315,0-6.146-1.174-8.493-3.523C1383.807,294.721,1382.633,291.889,1382.633,288.574z
		 M1384.291,309.704h20.716v67.118h-20.716V309.704z"/>
	<path style="fill:#322A28;" d="M1483.446,365.221c-3.314,4.235-7.505,7.506-12.567,9.804c-5.065,2.3-10.313,3.453-15.743,3.453
		c-5.157,0-10.012-0.83-14.57-2.485c-4.558-1.658-8.517-4.027-11.877-7.113c-3.362-3.084-6.007-6.788-7.941-11.117
		c-1.934-4.326-2.9-9.16-2.9-14.5c0-5.338,0.966-10.172,2.9-14.502c1.934-4.326,4.579-8.031,7.941-11.117
		c3.359-3.084,7.319-5.454,11.877-7.111s9.413-2.487,14.57-2.487c4.786,0,9.135,0.83,13.05,2.487
		c3.913,1.658,7.227,4.027,9.943,7.111c2.715,3.086,4.81,6.792,6.284,11.117c1.471,4.329,2.209,9.163,2.209,14.502v6.489h-48.059
		c0.829,3.96,2.625,7.113,5.386,9.46c2.763,2.349,6.167,3.523,10.219,3.523c3.405,0,6.283-0.76,8.632-2.279
		c2.348-1.519,4.395-3.475,6.145-5.87L1483.446,365.221z M1465.908,335.667c0.09-3.498-1.06-6.491-3.453-8.977
		c-2.396-2.485-5.479-3.729-9.253-3.729c-2.302,0-4.328,0.37-6.077,1.105c-1.75,0.737-3.246,1.681-4.488,2.832
		c-1.243,1.151-2.21,2.485-2.9,4.004s-1.083,3.107-1.174,4.764H1465.908z"/>
	<path style="fill:#322A28;" d="M1491.179,309.704h22.096l13.672,42.121h0.276l11.462-42.121h22.648l12.429,42.121h0.276
		l12.568-42.121h20.991l-23.891,67.118h-20.439l-13.948-44.606h-0.276l-12.429,44.606h-20.853L1491.179,309.704z"/>
</g>
<g>
	<path style="fill:#E5F0F8;" d="M386.425,1989.465c0,0-566.364-1563.944,472.975-1458.081
		c445.155,45.342,362.054,320.418,558.659,577.795c127.438,166.829,372.538,30.352,464.387,176.133s-16.088,561.454-53.951,704.153
		H386.425z"/>
	<g>
		<polygon style="fill:#F2BB16;" points="1126.731,994.505 837.843,1186.536 549.008,994.505 		"/>
		<polygon style="fill:#F2BB16;" points="1126.731,994.505 837.843,802.473 549.008,994.505 		"/>
		<g>
			<rect x="569.719" y="577.834" style="fill:#FFFFFF;" width="533.948" height="726.87"/>
			<g>
				<path style="fill:#BBDBF3;" d="M1016.166,618.572c-1.477-1.918-3.343-3.391-5.606-4.424c-2.263-1.032-4.598-1.549-7.005-1.549
					c-2.953,0-5.618,0.552-8.001,1.66c-2.389,1.104-4.43,2.617-6.122,4.535c-1.699,1.918-3.013,4.169-3.95,6.75
					c-0.93,2.581-1.398,5.348-1.398,8.298c0,2.752,0.444,5.36,1.327,7.818c0.888,2.458,2.161,4.622,3.835,6.488
					c1.669,1.87,3.715,3.346,6.122,4.427c2.407,1.08,5.138,1.624,8.187,1.624c3.001,0,5.63-0.615,7.893-1.846
					c2.257-1.227,4.177-2.95,5.75-5.162l5.978,4.499c-0.396,0.54-1.086,1.315-2.071,2.323c-0.978,1.008-2.281,2.017-3.907,3.025
					c-1.621,1.008-3.577,1.894-5.864,2.653c-2.287,0.762-4.928,1.143-7.929,1.143c-4.129,0-7.851-0.786-11.17-2.359
					c-3.319-1.573-6.146-3.637-8.481-6.194c-2.341-2.557-4.123-5.447-5.348-8.667c-1.23-3.22-1.843-6.479-1.843-9.772
					c0-4.033,0.66-7.758,1.987-11.176c1.326-3.415,3.187-6.365,5.57-8.85c2.383-2.482,5.246-4.412,8.595-5.789
					c3.343-1.378,7.029-2.065,11.062-2.065c3.439,0,6.818,0.663,10.138,1.99c3.319,1.33,6.038,3.37,8.151,6.122L1016.166,618.572z"
					/>
				<path style="fill:#BBDBF3;" d="M1024.575,607.288h8.187l15.342,42.484h0.15l15.93-42.484h7.743l-20.576,52.219h-6.638
					L1024.575,607.288z"/>
			</g>
			<rect x="601.46" y="681.938" style="fill:#BBDBF3;" width="146.874" height="174.114"/>
			<rect x="601.46" y="607.288" style="fill:#E5F0F8;" width="146.874" height="5.005"/>
			<rect x="601.46" y="617.576" style="fill:#E5F0F8;" width="146.874" height="5.005"/>
			<rect x="601.46" y="627.865" style="fill:#E5F0F8;" width="146.874" height="5.005"/>
			<rect x="601.46" y="638.154" style="fill:#E5F0F8;" width="86.462" height="5.005"/>
			<g>
				<defs>
					<rect id="SVGID_1_" x="601.46" y="681.938" width="146.874" height="174.114"/>
				</defs>
				<clipPath id="SVGID_00000132062372458545023520000003434679162627791035_">
					<use xlink:href="#SVGID_1_"  style="overflow:visible;"/>
				</clipPath>
				<g style="clip-path:url(#SVGID_00000132062372458545023520000003434679162627791035_);">
					<path style="fill:#BBDBF3;" d="M712.217,1230.963L712.217,1230.963c-2.396,0-4.339-1.943-4.339-4.339v-4.843
						c0-2.396,1.943-4.339,4.339-4.339l0,0c2.396,0,4.339,1.943,4.339,4.339v4.843
						C716.555,1229.02,714.613,1230.963,712.217,1230.963z"/>
					<polygon style="fill:#BBDBF3;" points="689.021,1198.078 735.843,1217.442 689.021,1209.379 					"/>
					<rect x="650.275" y="1038.79" style="fill:#BBDBF3;" width="12.915" height="170.588"/>
					<rect x="624.445" y="1198.078" style="fill:#BBDBF3;" width="64.576" height="11.301"/>
					<rect x="614.406" y="1036.334" style="fill:#BBDBF3;" width="37.4" height="11.032"/>
					<path style="fill:#BBDBF3;" d="M577.622,1230.963L577.622,1230.963c2.396,0,4.339-1.943,4.339-4.339v-4.843
						c0-2.396-1.943-4.339-4.339-4.339l0,0c-2.396,0-4.339,1.943-4.339,4.339v4.843
						C573.283,1229.02,575.226,1230.963,577.622,1230.963z"/>
					<polygon style="fill:#BBDBF3;" points="624.445,1198.078 577.622,1217.442 624.445,1209.379 					"/>
					<path style="fill:#F9E181;" d="M667.291,884.219c0,0-115.348-5.565-119.808,77.006c-4.46,82.571,77.092,123.019,148.178,96.26
						C794.433,1020.305,787.274,902.922,667.291,884.219z"/>
					<polygon style="fill:#2D628C;" points="612.708,990.153 612.497,958.445 649.702,963.934 					"/>
					<path style="fill:#FDAE97;" d="M844.661,893.019l8.623-5.807c0,0,10.503-3.836,14.142-5.646
						c2.052-1.02,7.855-3.195,8.929-3.195c0.85-0.001,2.3,1.346,1.946,2.099c-0.459,0.979-5.328,4.635-7.208,6.105
						c-1.787,1.397-7.147,5.59-7.147,5.59s17.105-1.513,22.802-2.346c3.207-0.469,12.516-2.237,12.989-0.026
						c0.36,1.684-8.963,4.554-12.144,5.566c-2.924,0.931-11.67,3.805-11.67,3.805s12.637-1.983,16.849-2.644
						c3.065-0.481,12.021-3.064,12.619-0.605c0.592,2.435-8.414,4.339-11.348,5.31c-4.141,1.371-16.565,5.483-16.565,5.483
						s13.267-1.775,17.689-2.366c2.447-0.327,9.611-2.25,10.013,0.088c0.409,2.381-7.06,3.381-9.49,4.032
						c-4.163,1.115-16.651,4.46-16.651,4.46s9.623-1.021,12.83-1.362c1.371-0.146,5.471-0.454,5.573,0.895
						c0.139,1.836-5.364,2.663-7.177,3.142l-14.985,3.958c-1.212,0.32-2.454,0.496-3.698,0.524l-22.683,3.153L844.661,893.019z"/>
					<path style="fill:#0775EF;" d="M662.4,946.534l142.674,43.091c3.884,0.489,7.753,1.598,11.45,3.458
						c17.401,8.759,24.408,29.967,15.648,47.368c-8.759,17.402-29.967,24.408-47.368,15.649l-160.228-34.422L662.4,946.534z"/>
					<path style="fill:#0775EF;" d="M836.007,1036.322c0.23-1.626,0.389-3.275,0.389-4.965c0-19.482-15.793-35.275-35.275-35.275
						c-19.482,0-35.275,15.793-35.275,35.275l2.086,157.514h58.698L836.007,1036.322z"/>
					<path style="fill:#088CFC;" d="M632.802,1027.2l114.432,44.985c20.2,7.941,43.224-2.089,51.165-22.289l0,0
						c7.941-20.2-2.089-43.224-22.289-51.165l-114.432-44.985c-20.2-7.941-43.224,2.089-51.165,22.289v0
						C602.573,996.235,612.603,1019.26,632.802,1027.2z"/>
					<polygon style="fill:#E5F0F8;" points="686.377,801.855 723.682,818.653 718.539,970.186 612.497,971.829 596.427,815.95 
						648.219,799.085 					"/>
					<path style="fill:#FDAE97;" d="M686.367,779.97v23.665c0,0-1.414,5.11-13.445,5.16c-12.006,0.025-24.707-7.938-24.707-7.938
						l3.721-51.745L686.367,779.97z"/>
					<polygon style="fill:#E89780;" points="686.377,800.389 661.8,774.874 686.377,774.551 					"/>
					<path style="fill:#FDAE97;" d="M696.44,732.367c0,0,0,14.512,0,24.806v8.508c0,6.723-1.885,16.695-9.451,19.002
						c-7.541,2.307-17.935-0.844-25.178-8.707c-7.243-7.888-23.318-43.411-0.968-56.533
						C683.218,706.32,695.919,728.894,696.44,732.367z"/>
					<path style="fill:#93ACBF;" d="M730.838,932.19c2.369,9.914,11.603,16.546,21.484,16.046l0,0l99.248-21.035l-1.452-13.152
						l-2.642-24.242l-0.287-2.81l-100.912,19.959C735.086,909.639,728.155,920.999,730.838,932.19z"/>
					<path style="fill:#088CFC;" d="M801.122,1032.886c0-19.482-15.793-35.275-35.275-35.275c-19.482,0-30.173,8.124-34.423,27.553
						c-9.866,45.106-30.561,165.236-30.561,165.236h61.122l38.748-152.548C800.962,1036.225,801.122,1034.576,801.122,1032.886z"/>
					<path style="fill:#93ACBF;" d="M763.267,943.95L763.267,943.95c-12.125,5.739-26.741,0.513-32.479-11.612l-38.15-80.606
						c-5.739-12.125-0.513-26.741,11.612-32.479l0,0c12.125-5.739,26.741-0.513,32.479,11.612l38.15,80.606
						C780.617,923.596,775.392,938.212,763.267,943.95z"/>
					<path style="fill:#322A28;" d="M663.162,718.212c0,0,27.045-12.476,33.282-4.282c6.237,8.194-4.153,11.055-4.153,11.055
						s12.899-1.523,12.397,7.173c-0.502,8.696-32.777-3.177-32.777-3.177s10.703,4.85,4.515,8.696
						c-6.188,3.846-13.263-1.171-13.263-1.171s-6.137,3.509-5.132,19.625c1.004,16.116-8.615,19.675-8.615,19.675
						s1.152-24.416-3.562-30.938C641.14,738.346,648.06,714.132,663.162,718.212z"/>
					<g>
						<path style="fill:#FDAE97;" d="M659.546,759.867c2.624,4.11,3.325,7.003,0.099,9.063c-3.227,2.06-8.592,1.41-11.217-2.7
							c-2.624-4.11-2.136-9.112,1.091-11.173C652.745,752.997,656.922,755.757,659.546,759.867z"/>
						<path style="fill:none;stroke:#E89780;stroke-width:0.5944;stroke-miterlimit:10;" d="M651.122,759.552
							c0,0,3.315-0.494,5.585,3.753c0,0-2.094-0.481-4.641,0"/>
					</g>
					<path style="fill:#2C3447;" d="M676.343,751.245c0,1.559,0.818,2.823,1.826,2.823c1.009,0,1.827-1.264,1.827-2.823
						c0-1.559-0.818-2.823-1.827-2.823C677.161,748.421,676.343,749.685,676.343,751.245z"/>
					<path style="fill:none;stroke:#2C3447;stroke-width:0.7442;stroke-miterlimit:10;" d="M677.516,768.954
						c0,0,2.713,5.283,9.575,4.044"/>
					<path style="fill:none;stroke:#2C3447;stroke-width:0.7442;stroke-miterlimit:10;" d="M684.1,752.324l3.441,9.957
						c0.349,1.009-0.035,2.125-0.929,2.708l-2.805,1.825"/>
					<path style="fill:none;stroke:#2C3447;stroke-width:0.7442;stroke-miterlimit:10;" d="M673.466,746.558
						c0,0,3.847-2.691,7.513-0.985"/>
					<path style="fill:#2C3447;" d="M695.205,751.245c0,1.559-0.818,2.823-1.827,2.823c-1.009,0-1.826-1.264-1.826-2.823
						c0-1.559,0.818-2.823,1.826-2.823C694.387,748.421,695.205,749.685,695.205,751.245z"/>
					<path style="fill:none;stroke:#2C3447;stroke-width:0.7442;stroke-miterlimit:10;" d="M696.9,746.403
						c0,0-2.665-2.536-6.332-0.83"/>
					<path style="fill:#E89780;" d="M679.246,761.541c-0.48,1.433-3.178,1.821-6.026,0.867c-2.848-0.954-4.769-2.889-4.289-4.321
						c0.48-1.433,3.178-1.821,6.026-0.867C677.806,758.174,679.726,760.109,679.246,761.541z"/>
					<path style="fill:#E89780;" d="M696.44,757.173v5.532c-2.332,0.273-4.242-0.372-4.565-1.588
						C691.528,759.678,693.562,757.917,696.44,757.173z"/>
					<polygon style="fill:#FDAE97;" points="774.979,1212.49 773.763,1188.87 821.434,1188.87 822.189,1212.49 					"/>
					<polygon style="fill:#E89780;" points="821.873,1202.602 773.763,1188.87 821.434,1188.87 					"/>
					<polygon style="fill:#FDAE97;" points="700.566,1214.019 704.465,1190.4 750.992,1190.4 745.072,1214.019 					"/>
					<polygon style="fill:#F74242;" points="679.5,813 670.867,813 670.11,814.638 674.089,817.6 677.484,817.6 680.32,814.134 
											"/>
					<polygon style="fill:#E89780;" points="748.148,1201.747 704.465,1190.4 750.992,1190.4 					"/>
					<polygon style="fill:#FFFFFF;" points="648.362,798.813 675.499,808.794 670.552,820.121 647.166,801.302 					"/>
					<polygon style="fill:#FFFFFF;" points="686.367,801.562 687.669,804.217 680.635,819.05 675.499,808.794 					"/>
					<polygon style="fill:#F74242;" points="677.484,817.6 690.34,917.386 680.32,930.305 667.291,918.587 674.089,817.6 					"/>
					
						<line style="fill:none;stroke:#2C3447;stroke-width:0.7442;stroke-miterlimit:10;" x1="620.568" y1="866.794" x2="606.293" y2="925.775"/>
					
						<line style="fill:none;stroke:#2C3447;stroke-width:0.7442;stroke-miterlimit:10;" x1="720.893" y1="902.601" x2="722.108" y2="866.794"/>
					<path style="fill:#403534;" d="M700.566,1214.019l-4.183,17.216h62.442v0c2.021-8.812-4.673-17.216-13.714-17.216h-0.039
						H700.566z"/>
					<path style="fill:#403534;" d="M774.979,1212.49v18.746h65.402l-0.08-1.546c-0.499-9.64-8.46-17.2-18.112-17.2l0,0H774.979z"/>
					
						<path style="fill:none;stroke:#FFFFFF;stroke-width:0.396;stroke-linecap:round;stroke-linejoin:round;stroke-miterlimit:10;" d="
						M823.128,1216.218c0,0,1.424-6.229,4.939-4.538c3.515,1.691-4.716,4.761-4.716,4.761l4.894,3.381"/>
					
						<path style="fill:none;stroke:#FFFFFF;stroke-width:0.396;stroke-linecap:round;stroke-linejoin:round;stroke-miterlimit:10;" d="
						M823.128,1216.218c0,0-1.424-6.229-4.938-4.538c-3.515,1.691,4.716,4.761,4.716,4.761l-4.894,3.381"/>
					
						<path style="fill:none;stroke:#FFFFFF;stroke-width:0.396;stroke-linecap:round;stroke-linejoin:round;stroke-miterlimit:10;" d="
						M744.626,1218.452c0,0,1.424-6.229,4.938-4.538c3.515,1.691-4.716,4.761-4.716,4.761l4.894,3.381"/>
					
						<path style="fill:none;stroke:#FFFFFF;stroke-width:0.396;stroke-linecap:round;stroke-linejoin:round;stroke-miterlimit:10;" d="
						M744.626,1218.452c0,0-1.424-6.229-4.939-4.538c-3.515,1.691,4.716,4.761,4.716,4.761l-4.894,3.381"/>
					<path style="fill:#93ACBF;" d="M690.306,803.668c0,0,2.552,26.686,6.684,66.985c4.132,40.299,4.287,107.14,43.708,110.007
						c0,0,4.298-7.557,18.299-4.951c0,0-12.165-6.307-21.463-20.754c-9.298-14.448-13.853-136.302-13.853-136.302L690.306,803.668z"
						/>
					<polygon style="fill:#E5F0F8;" points="692.51,826.213 695.661,857.633 685.642,849.095 686.367,826.827 					"/>
					<path style="fill:#93ACBF;" d="M638.986,802.091c0,0,10.021,43.216,14.929,83.292c4.908,40.075,3.243,78.83,15.871,102.362
						c0,0-50.649,9.111-50.532,29.541c0,0-14.278-15.747-14.402-37.315c-0.124-21.568-8.424-164.021-8.424-164.021L638.986,802.091z
						"/>
					<path style="fill:#F9E181;" d="M596.427,944.238c0.362,2.867-9.673,38.044,19.953,48.648
						c29.626,10.604,72.057,33.54,43.674,66.034l-47.557-17.202l-51.547-48.831l10.035-44.406L596.427,944.238z"/>
					<path style="fill:none;stroke:#F2BB16;stroke-width:2.3627;stroke-miterlimit:10;" d="M607.898,988.51
						c0,0-34.331-15.994-31.895-45.228c2.15-25.803,20.424-31.06,20.424-31.06"/>
					<path style="fill:#FDAE97;" d="M760.629,922.001c0.193,2.012-10.881,7.258-19.755,8.37c-7.519,0.952-25.09,1.278-30.269,1.338
						l-4.565-29.779c2.924-0.84,8.731-3.137,11.563-3.768c7.535-1.68,23.159-2.407,24.014,0.297
						c0.868,2.671-12.104,6.019-10.819,6.853c1.285,0.834,12.226,1.309,16.322-0.259c4.129-1.555,12.393-6.331,14.551-4.947
						c2.191,1.397,1.006,5.002,1.006,5.002s2.952-2.193,3.983-0.099c1.031,2.093-2.708,6.652-2.708,6.652s1.486-1.396,2.049,1.187
						c0.55,2.615-7.33,7.473-7.33,7.473S760.483,919.969,760.629,922.001z"/>
					<path style="fill:#93ACBF;" d="M610.021,952.644L610.021,952.644c-13.395,0.725-24.947-9.641-25.672-23.036l-4.82-89.048
						c-0.725-13.395,9.641-24.947,23.036-25.672h0c13.395-0.725,24.947,9.641,25.672,23.036l4.82,89.048
						C633.782,940.366,623.416,951.919,610.021,952.644z"/>
					<path style="fill:#93ACBF;" d="M584.26,931.504c1.241,12.921,11.651,22.621,23.079,21.491l108.211-17.587l-7.231-46.342
						l-102.833,13.188C594.058,903.384,582.976,918.551,584.26,931.504z"/>
					<polyline style="fill:none;stroke:#586773;stroke-width:1.1813;stroke-miterlimit:10;" points="655.069,895.895 
						631.539,898.913 629.304,857.633 					"/>
				</g>
			</g>
			<rect x="766.449" y="681.938" style="fill:#BBDBF3;" width="63.666" height="8.794"/>
			<rect x="849.813" y="681.938" style="fill:#E5F0F8;" width="67.887" height="8.794"/>
			<rect x="849.813" y="709.492" style="fill:#E5F0F8;" width="157.054" height="8.794"/>
			<rect x="928.428" y="681.938" style="fill:#E5F0F8;" width="46.518" height="8.794"/>
			<rect x="985.234" y="681.938" style="fill:#E5F0F8;" width="86.692" height="8.794"/>
			<rect x="766.449" y="709.492" style="fill:#BBDBF3;" width="63.666" height="8.794"/>
			<rect x="849.813" y="737.045" style="fill:#E5F0F8;" width="77.12" height="8.794"/>
			<rect x="766.449" y="737.045" style="fill:#BBDBF3;" width="63.666" height="8.794"/>
			<rect x="849.813" y="764.598" style="fill:#E5F0F8;" width="222.113" height="8.794"/>
			<rect x="766.449" y="764.598" style="fill:#BBDBF3;" width="63.666" height="8.794"/>
			<rect x="849.813" y="792.152" style="fill:#E5F0F8;" width="38.56" height="8.794"/>
			<rect x="766.449" y="792.152" style="fill:#BBDBF3;" width="63.666" height="8.794"/>
			<rect x="849.813" y="819.705" style="fill:#E5F0F8;" width="30.162" height="8.794"/>
			<rect x="887.537" y="819.705" style="fill:#E5F0F8;" width="30.162" height="8.794"/>
			<rect x="925.262" y="819.705" style="fill:#E5F0F8;" width="30.162" height="8.794"/>
			<rect x="962.987" y="819.705" style="fill:#E5F0F8;" width="30.162" height="8.794"/>
			<rect x="766.449" y="819.705" style="fill:#BBDBF3;" width="63.666" height="8.794"/>
			<rect x="849.813" y="847.258" style="fill:#E5F0F8;" width="131.904" height="8.794"/>
			<rect x="766.449" y="847.258" style="fill:#BBDBF3;" width="63.666" height="8.794"/>
			<rect x="601.46" y="876.453" style="fill:#E5F0F8;" width="470.466" height="9.145"/>
			<rect x="601.46" y="898.261" style="fill:#E5F0F8;" width="470.466" height="9.145"/>
			<rect x="601.46" y="920.07" style="fill:#E5F0F8;" width="470.466" height="9.145"/>
			<rect x="601.46" y="941.878" style="fill:#E5F0F8;" width="470.466" height="9.145"/>
			<rect x="601.46" y="963.686" style="fill:#E5F0F8;" width="470.466" height="9.145"/>
			<rect x="601.46" y="985.494" style="fill:#E5F0F8;" width="470.466" height="9.145"/>
			<rect x="601.46" y="1007.302" style="fill:#E5F0F8;" width="470.466" height="9.145"/>
			<rect x="601.46" y="1029.11" style="fill:#E5F0F8;" width="470.466" height="9.145"/>
			<rect x="601.46" y="1050.918" style="fill:#E5F0F8;" width="470.466" height="9.145"/>
			<rect x="601.46" y="1072.727" style="fill:#E5F0F8;" width="470.466" height="9.145"/>
			<rect x="601.46" y="1094.535" style="fill:#E5F0F8;" width="470.466" height="9.145"/>
			<rect x="601.46" y="1116.343" style="fill:#E5F0F8;" width="470.466" height="9.145"/>
			<rect x="601.46" y="1138.151" style="fill:#E5F0F8;" width="470.466" height="9.145"/>
		</g>
		<polygon style="fill:#F9E181;" points="1126.731,994.505 1126.731,1378.569 549.008,1378.569 549.008,994.505 837.843,1186.536 		
			"/>
		<polygon style="fill:#F9ECB8;" points="549.008,1378.569 837.843,1186.536 1126.731,1378.569 		"/>
	</g>
	<g>
		<polygon style="fill:#0775EF;" points="1376.639,925.046 1569.43,913.521 1568.332,825.694 1352.18,733.952 		"/>
		<path style="fill:#088CFC;" d="M1307.683,691.397c0,0,132.374,67.836,114.363,233.326c-1.051,9.654-9.447,16.837-19.144,16.317
			l-60.912-3.267L1307.683,691.397z"/>
		<g>
			<circle style="fill:#2EC6FC;" cx="1197.592" cy="850.859" r="193.774"/>
			<circle style="fill:#54667A;" cx="1197.591" cy="850.859" r="176.948"/>
			<path style="fill:#E5F0F8;" d="M1336.286,946.63c-27.688,40.105-69.801,64.482-114.577,70.934
				c-40.651,5.91-83.508-2.904-119.877-28.013c-76.473-52.797-95.734-157.955-42.937-234.429
				c40.622-58.839,112.217-83.816,177.917-68.176c19.699,4.692,38.87,13.022,56.529,25.214
				C1369.815,764.956,1389.1,870.132,1336.286,946.63z"/>
			<path style="fill:#FFFFFF;" d="M1336.286,946.63c-27.688,40.105-69.801,64.482-114.577,70.934
				c-19.758-4.66-38.977-13.024-56.636-25.215c-76.473-52.797-95.734-157.956-42.938-234.429
				c27.705-40.13,69.818-64.506,114.677-70.973c19.699,4.692,38.87,13.022,56.529,25.214
				C1369.815,764.956,1389.1,870.132,1336.286,946.63z"/>
			<g>
				
					<ellipse transform="matrix(0.7071 -0.7071 0.7071 0.7071 -251.3518 1095.9972)" style="fill:none;stroke:#BBDBF3;stroke-width:5.5714;stroke-miterlimit:10;" cx="1197.31" cy="851.407" rx="141.223" ry="141.223"/>
				<circle style="fill:none;stroke:#BBDBF3;stroke-width:5.5714;stroke-miterlimit:10;" cx="1197.31" cy="851.407" r="111.911"/>
				<g>
					<path style="fill:#BBDBF3;" d="M1263.011,896.766c-25.049,36.282-74.779,45.391-111.06,20.342
						c-19.79-13.663-31.49-34.663-33.945-56.822c-2.13-18.478,2.218-37.747,13.604-54.239
						c25.049-36.282,74.779-45.39,111.061-20.342C1278.951,810.755,1288.06,860.485,1263.011,896.766z"/>
					<path style="fill:#E5F0F8;" d="M1199.018,848.933c-27.2-21.135-59.151-5.408-81.013,11.353
						c2.455,22.159,14.155,43.159,33.945,56.822c19.79,13.663,43.574,17.161,65.164,11.603
						C1225.039,902.327,1228.421,866.877,1199.018,848.933z"/>
					<path style="fill:#E5F0F8;stroke:#BBDBF3;stroke-width:2.7857;stroke-miterlimit:10;" d="M1237.282,844.664
						c-13.423,19.443-38.184,32.408-51.391,23.29s-9.859-36.866,3.564-56.309c13.423-19.443,31.839-23.219,45.046-14.101
						C1247.709,806.663,1250.706,825.221,1237.282,844.664z"/>
				</g>
				<path style="fill:#BBDBF3;" d="M1252.826,771.038L1252.826,771.038c-2.087-1.441-2.616-4.328-1.175-6.415l27.836-40.319
					c1.441-2.087,4.328-2.616,6.415-1.175l0,0c2.087,1.441,2.616,4.328,1.175,6.415l-27.836,40.319
					C1257.801,771.951,1254.914,772.479,1252.826,771.038z"/>
				<path style="fill:#BBDBF3;" d="M1117.314,796.179L1117.314,796.179c-1.441,2.087-4.328,2.616-6.415,1.175l-40.319-27.836
					c-2.087-1.441-2.616-4.328-1.175-6.415l0,0c1.441-2.087,4.328-2.616,6.415-1.175l40.319,27.836
					C1118.226,791.205,1118.755,794.091,1117.314,796.179z"/>
				<path style="fill:#BBDBF3;" d="M1142.488,930.769L1142.488,930.769c2.087,1.441,2.616,4.328,1.175,6.415l-27.836,40.319
					c-1.441,2.087-4.328,2.616-6.415,1.175l0,0c-2.087-1.441-2.616-4.328-1.175-6.415l27.836-40.319
					C1137.514,929.857,1140.401,929.328,1142.488,930.769z"/>
				<path style="fill:#BBDBF3;" d="M1277.19,906.555L1277.19,906.555c1.441-2.087,4.328-2.616,6.415-1.175l40.319,27.836
					c2.087,1.441,2.616,4.328,1.175,6.415l0,0c-1.441,2.087-4.328,2.616-6.415,1.175l-40.319-27.836
					C1276.277,911.53,1275.749,908.643,1277.19,906.555z"/>
			</g>
		</g>
		<path style="fill:#7992B0;" d="M1526.522,926.644c-31.428-21.697-39.344-64.916-17.646-96.344
			c21.697-31.428,64.918-39.346,96.345-17.648s39.342,64.918,17.644,96.346C1601.168,940.425,1557.949,948.341,1526.522,926.644z"/>
		
			<ellipse transform="matrix(0.8777 -0.4792 0.4792 0.8777 -225.2388 856.7756)" style="fill:#54667A;" cx="1565.871" cy="869.648" rx="44.02" ry="44.02"/>
		<polygon style="fill:#0775EF;" points="1581.139,1066.231 1523.585,881.87 1606.1,851.769 1768.496,1021.374 		"/>
		<path style="fill:#088CFC;" d="M1824.059,1047.899c0,0-110.349-99.738-258.712-24.242c-8.655,4.404-12.396,14.801-8.473,23.684
			l24.644,55.8L1824.059,1047.899z"/>
		<g>
			<circle style="fill:#2EC6FC;" cx="1713.968" cy="1207.361" r="193.774"/>
			<circle style="fill:#54667A;" cx="1713.967" cy="1207.361" r="176.948"/>
			<path style="fill:#E5F0F8;" d="M1852.662,1303.132c-27.688,40.105-69.8,64.482-114.577,70.934
				c-40.651,5.91-83.508-2.905-119.877-28.013c-76.473-52.797-95.734-157.955-42.937-234.429
				c40.622-58.839,112.217-83.816,177.917-68.176c19.699,4.692,38.87,13.022,56.529,25.214
				C1886.191,1121.459,1905.476,1226.634,1852.662,1303.132z"/>
			<path style="fill:#FFFFFF;" d="M1852.662,1303.132c-27.688,40.105-69.8,64.482-114.577,70.934
				c-19.758-4.66-38.977-13.024-56.636-25.215c-76.473-52.797-95.734-157.956-42.938-234.429
				c27.705-40.13,69.817-64.506,114.676-70.973c19.699,4.692,38.87,13.022,56.529,25.214
				C1886.191,1121.459,1905.476,1226.634,1852.662,1303.132z"/>
			<g>
				
					<ellipse transform="matrix(0.7071 -0.7071 0.7071 0.7071 -352.1938 1565.5474)" style="fill:none;stroke:#BBDBF3;stroke-width:5.5714;stroke-miterlimit:10;" cx="1713.686" cy="1207.909" rx="141.223" ry="141.223"/>
				
					<ellipse transform="matrix(0.7071 -0.7071 0.7071 0.7071 -352.1938 1565.5474)" style="fill:none;stroke:#BBDBF3;stroke-width:5.5714;stroke-miterlimit:10;" cx="1713.686" cy="1207.909" rx="111.911" ry="111.911"/>
				<g>
					<path style="fill:#BBDBF3;" d="M1779.387,1253.269c-25.049,36.282-74.779,45.391-111.061,20.342
						c-19.79-13.663-31.49-34.663-33.945-56.822c-2.13-18.478,2.218-37.747,13.604-54.239
						c25.049-36.282,74.779-45.39,111.061-20.342C1795.328,1167.257,1804.436,1216.987,1779.387,1253.269z"/>
					<path style="fill:#E5F0F8;" d="M1715.394,1205.436c-27.2-21.135-59.151-5.408-81.013,11.353
						c2.455,22.159,14.155,43.159,33.945,56.822c19.79,13.663,43.574,17.161,65.164,11.603
						C1741.415,1258.829,1744.797,1223.379,1715.394,1205.436z"/>
					<path style="fill:#E5F0F8;stroke:#BBDBF3;stroke-width:2.7857;stroke-miterlimit:10;" d="M1753.659,1201.167
						c-13.423,19.443-38.184,32.408-51.391,23.29c-13.207-9.118-9.859-36.866,3.564-56.309c13.423-19.443,31.839-23.218,45.046-14.1
						C1764.085,1163.165,1767.082,1181.724,1753.659,1201.167z"/>
				</g>
				<path style="fill:#BBDBF3;" d="M1769.203,1127.541L1769.203,1127.541c-2.087-1.441-2.616-4.328-1.175-6.415l27.836-40.319
					c1.441-2.087,4.328-2.616,6.415-1.175l0,0c2.087,1.441,2.616,4.328,1.175,6.415l-27.836,40.319
					C1774.177,1128.453,1771.29,1128.981,1769.203,1127.541z"/>
				<path style="fill:#BBDBF3;" d="M1633.69,1152.681L1633.69,1152.681c-1.441,2.087-4.328,2.616-6.415,1.175l-40.319-27.836
					c-2.087-1.441-2.616-4.328-1.175-6.415l0,0c1.441-2.087,4.328-2.616,6.415-1.175l40.319,27.836
					C1634.603,1147.707,1635.131,1150.594,1633.69,1152.681z"/>
				<path style="fill:#BBDBF3;" d="M1658.864,1287.271L1658.864,1287.271c2.087,1.441,2.616,4.328,1.175,6.415l-27.836,40.319
					c-1.441,2.087-4.328,2.616-6.415,1.175l0,0c-2.087-1.441-2.616-4.328-1.175-6.415l27.836-40.319
					C1653.89,1286.359,1656.777,1285.83,1658.864,1287.271z"/>
				<path style="fill:#BBDBF3;" d="M1793.566,1263.058L1793.566,1263.058c1.441-2.087,4.328-2.616,6.415-1.175l40.319,27.836
					c2.087,1.441,2.616,4.328,1.175,6.415l0,0c-1.441,2.087-4.328,2.616-6.415,1.175l-40.319-27.836
					C1792.653,1268.032,1792.125,1265.145,1793.566,1263.058z"/>
			</g>
		</g>
		<path style="fill:#2EC6FC;" d="M1526.522,926.644c31.428,21.697,74.646,13.782,96.344-17.646
			c21.697-31.428,13.783-74.649-17.644-96.346c-31.428-21.697-74.648-13.779-96.345,17.648
			C1487.179,861.728,1495.094,904.946,1526.522,926.644z"/>
		
			<ellipse transform="matrix(0.8918 -0.4525 0.4525 0.8918 -224.0293 802.5882)" style="fill:#0775EF;" cx="1565.871" cy="869.648" rx="44.02" ry="44.02"/>
	</g>
	<path style="fill:#FFFFFF;" d="M412.882,973.307c0,0-4.61-0.64-10.658,0.842l-24.45-5.22c-1.263-2.731-3.752-4.787-6.77-5.43
		c-0.629-0.134-1.281-0.207-1.949-0.212c-3.871-0.029-7.227,2.233-8.803,5.51l-24.525,4.854c-6.025-1.572-10.644-1.001-10.644-1.001
		c-14.974-0.112-27.204,11.936-27.316,26.91c-0.112,14.974,11.936,27.204,26.91,27.316c14.974,0.112,27.204-11.936,27.316-26.91
		c0.009-1.195-0.068-2.37-0.209-3.525l3.95-2.385c1.163-0.702,1.57-2.194,0.933-3.394c-0.053-0.101-0.109-0.197-0.162-0.296
		l10.314-7.946c0.674,0.154,1.372,0.244,2.092,0.25c0.719,0.005,1.419-0.074,2.095-0.218l10.194,8.1
		c-0.055,0.099-0.112,0.194-0.167,0.294c-0.655,1.19-0.271,2.688,0.882,3.407l3.914,2.444c-0.159,1.153-0.253,2.326-0.262,3.521
		c-0.112,14.974,11.936,27.204,26.91,27.316c14.974,0.112,27.204-11.936,27.316-26.91
		C439.904,985.649,427.856,973.419,412.882,973.307z"/>
	<g>
		<g>
			<path style="fill:#BBDBF3;" d="M1179.499,1981.985L1179.499,1981.985c3.899,0,7.06-3.161,7.06-7.06v-7.881
				c0-3.899-3.161-7.06-7.06-7.06l0,0c-3.899,0-7.06,3.161-7.06,7.06v7.881C1172.439,1978.824,1175.6,1981.985,1179.499,1981.985z"
				/>
			<polygon style="fill:#BBDBF3;" points="1217.243,1928.475 1141.054,1959.985 1217.243,1946.864 			"/>
			<rect x="1259.274" y="1669.286" style="fill:#BBDBF3;" width="21.015" height="277.578"/>
			<rect x="1217.243" y="1928.475" style="fill:#BBDBF3;" width="105.077" height="18.388"/>
			<rect x="1277.798" y="1665.289" style="fill:#BBDBF3;" width="60.857" height="17.951"/>
			<path style="fill:#BBDBF3;" d="M1398.509,1981.985L1398.509,1981.985c-3.899,0-7.06-3.161-7.06-7.06v-7.881
				c0-3.899,3.161-7.06,7.06-7.06l0,0c3.899,0,7.06,3.161,7.06,7.06v7.881C1405.569,1978.824,1402.408,1981.985,1398.509,1981.985z"
				/>
			<polygon style="fill:#BBDBF3;" points="1322.32,1928.475 1398.509,1959.985 1322.32,1946.864 			"/>
			<path style="fill:#F9E181;" d="M1252.601,1417.771c0,0,187.692-9.055,194.949,125.303s-125.443,200.175-241.112,156.633
				C1045.718,1639.207,1057.368,1448.203,1252.601,1417.771z"/>
			<polygon style="fill:#2D628C;" points="1341.418,1590.144 1341.76,1538.549 1281.221,1547.481 			"/>
			<path style="fill:#FDAE97;" d="M963.988,1432.09l-14.032-9.45c0,0-17.09-6.243-23.011-9.187c-3.338-1.66-12.782-5.198-14.53-5.2
				c-1.384-0.001-3.742,2.191-3.167,3.416c0.747,1.593,8.67,7.542,11.728,9.934c2.907,2.274,11.629,9.096,11.629,9.096
				s-27.832-2.462-37.104-3.818c-5.219-0.763-20.365-3.639-21.135-0.042c-0.586,2.74,14.584,7.41,19.76,9.057
				c4.758,1.514,18.99,6.191,18.99,6.191s-20.563-3.227-27.417-4.303c-4.987-0.783-19.56-4.986-20.533-0.985
				c-0.964,3.962,13.692,7.06,18.466,8.64c6.738,2.23,26.954,8.922,26.954,8.922s-21.588-2.888-28.784-3.851
				c-3.982-0.533-15.638-3.66-16.293,0.143c-0.667,3.874,11.488,5.501,15.442,6.56c6.774,1.815,27.095,7.258,27.095,7.258
				s-15.658-1.662-20.877-2.216c-2.23-0.237-8.902-0.739-9.069,1.456c-0.227,2.987,8.727,4.333,11.677,5.112l24.383,6.44
				c1.972,0.521,3.994,0.807,6.017,0.852l36.909,5.13L963.988,1432.09z"/>
			<path style="fill:#0775EF;" d="M1260.559,1519.169l-232.156,70.117c-6.32,0.796-12.616,2.599-18.631,5.627
				c-28.315,14.253-39.716,48.761-25.463,77.077c14.253,28.315,48.761,39.716,77.076,25.463l260.721-56.01L1260.559,1519.169z"/>
			<path style="fill:#0775EF;" d="M978.07,1665.27c-0.374-2.647-0.634-5.33-0.634-8.079c0-31.7,25.698-57.399,57.398-57.399
				s57.399,25.698,57.399,57.399l-3.395,256.303h-95.513L978.07,1665.27z"/>
			<path style="fill:#088CFC;" d="M1308.72,1650.427l-186.201,73.199c-32.869,12.921-70.334-3.399-83.255-36.268v0
				c-12.921-32.869,3.399-70.333,36.268-83.255l186.201-73.199c32.869-12.921,70.334,3.399,83.255,36.268h0
				C1357.91,1600.041,1341.589,1637.506,1308.72,1650.427z"/>
			<polygon style="fill:#E5F0F8;" points="1221.544,1283.75 1160.843,1311.083 1169.212,1557.655 1341.76,1560.327 
				1367.91,1306.685 1283.636,1279.242 			"/>
			<path style="fill:#FDAE97;" d="M1221.561,1248.138v38.507c0,0,2.301,8.315,21.877,8.396c19.536,0.04,40.202-12.917,40.202-12.917
				l-6.055-84.199L1221.561,1248.138z"/>
			<polygon style="fill:#E89780;" points="1221.544,1281.364 1261.536,1239.847 1221.544,1239.322 			"/>
			<path style="fill:#FDAE97;" d="M1205.172,1170.68c0,0,0,23.613,0,40.364v13.845c0,10.939,3.068,27.165,15.379,30.919
				c12.271,3.754,29.183-1.372,40.969-14.168c11.786-12.836,37.942-70.637,1.575-91.989
				C1226.686,1128.298,1206.019,1165.029,1205.172,1170.68z"/>
			<path style="fill:#93ACBF;" d="M1149.198,1495.828c-3.855,16.133-18.879,26.923-34.958,26.11l0,0l-161.494-34.228l2.363-21.401
				l4.298-39.447l0.468-4.572l164.202,32.476C1142.287,1459.134,1153.564,1477.618,1149.198,1495.828z"/>
			<path style="fill:#088CFC;" d="M1034.834,1659.678c0-31.7,25.698-57.398,57.398-57.398c31.7,0,49.097,13.219,56.012,44.833
				c16.054,73.396,49.728,268.868,49.728,268.868h-99.456l-63.049-248.224C1035.095,1665.111,1034.834,1662.428,1034.834,1659.678z"
				/>
			<path style="fill:#93ACBF;" d="M1096.432,1514.964L1096.432,1514.964c19.73,9.338,43.512,0.835,52.85-18.894l62.077-131.161
				c9.338-19.729,0.835-43.512-18.894-52.85l0,0c-19.73-9.338-43.512-0.835-52.85,18.894l-62.077,131.161
				C1068.2,1481.844,1076.702,1505.627,1096.432,1514.964z"/>
			<path style="fill:#322A28;" d="M1259.319,1147.647c0,0-44.007-20.301-54.155-6.968c-10.149,13.334,6.758,17.989,6.758,17.989
				s-20.989-2.478-20.172,11.672c0.816,14.15,53.335-5.17,53.335-5.17s-17.415,7.891-7.347,14.15
				c10.068,6.259,21.581-1.905,21.581-1.905s9.985,5.709,8.351,31.933c-1.634,26.223,14.018,32.015,14.018,32.015
				s-1.875-39.729,5.795-50.341C1295.154,1180.409,1283.894,1141.009,1259.319,1147.647z"/>
			<g>
				<path style="fill:#FDAE97;" d="M1265.204,1215.428c-4.271,6.688-5.411,11.395-0.161,14.747s13.981,2.294,18.252-4.394
					s3.476-14.827-1.775-18.18C1276.27,1204.249,1269.474,1208.74,1265.204,1215.428z"/>
				<path style="fill:none;stroke:#E89780;stroke-width:0.9672;stroke-miterlimit:10;" d="M1278.911,1214.915
					c0,0-5.394-0.805-9.087,6.107c0,0,3.407-0.782,7.551,0"/>
			</g>
			<path style="fill:#2C3447;" d="M1237.872,1201.398c0,2.537-1.331,4.594-2.972,4.594c-1.641,0-2.972-2.057-2.972-4.594
				s1.331-4.594,2.972-4.594C1236.541,1196.803,1237.872,1198.86,1237.872,1201.398z"/>
			<path style="fill:none;stroke:#2C3447;stroke-width:1.2109;stroke-miterlimit:10;" d="M1235.964,1230.215
				c0,0-4.415,8.596-15.581,6.58"/>
			<path style="fill:none;stroke:#2C3447;stroke-width:1.2109;stroke-miterlimit:10;" d="M1225.25,1203.154l-5.6,16.203
				c-0.567,1.641,0.056,3.458,1.512,4.406l4.564,2.969"/>
			<path style="fill:none;stroke:#2C3447;stroke-width:1.2109;stroke-miterlimit:10;" d="M1242.553,1193.772
				c0,0-6.259-4.378-12.225-1.602"/>
			<ellipse style="fill:#2C3447;" cx="1210.153" cy="1201.398" rx="2.972" ry="4.594"/>
			<path style="fill:none;stroke:#2C3447;stroke-width:1.2109;stroke-miterlimit:10;" d="M1204.423,1193.52
				c0,0,4.337-4.126,10.303-1.35"/>
			<path style="fill:#E89780;" d="M1233.148,1218.152c0.781,2.331,5.171,2.962,9.806,1.41c4.635-1.552,7.759-4.701,6.979-7.032
				s-5.171-2.963-9.806-1.41C1235.492,1212.672,1232.367,1215.821,1233.148,1218.152z"/>
			<path style="fill:#E89780;" d="M1205.172,1211.044v9.001c3.794,0.444,6.902-0.606,7.427-2.583
				C1213.163,1215.12,1209.854,1212.255,1205.172,1211.044z"/>
			<polygon style="fill:#FDAE97;" points="1077.373,1951.926 1079.352,1913.493 1001.784,1913.493 1000.555,1951.926 			"/>
			<polygon style="fill:#E89780;" points="1001.069,1935.837 1079.352,1913.493 1001.784,1913.493 			"/>
			<polygon style="fill:#FDAE97;" points="1198.457,1954.415 1192.113,1915.981 1116.404,1915.981 1126.038,1954.415 			"/>
			<polygon style="fill:#F74242;" points="1232.734,1301.884 1246.783,1301.884 1248.014,1304.551 1241.54,1309.37 
				1236.016,1309.37 1231.401,1303.73 			"/>
			<polygon style="fill:#E89780;" points="1121.032,1934.446 1192.113,1915.981 1116.404,1915.981 			"/>
			<polygon style="fill:#FFFFFF;" points="1283.401,1278.8 1239.246,1295.041 1247.296,1313.472 1285.349,1282.849 			"/>
			<polygon style="fill:#FFFFFF;" points="1221.561,1283.272 1219.442,1287.593 1230.889,1311.729 1239.246,1295.041 			"/>
			<polygon style="fill:#F74242;" points="1236.016,1309.37 1215.097,1471.739 1231.401,1492.76 1252.601,1473.693 1241.54,1309.37 
							"/>
			
				<line style="fill:none;stroke:#2C3447;stroke-width:1.2109;stroke-miterlimit:10;" x1="1328.628" y1="1389.417" x2="1351.856" y2="1485.389"/>
			
				<line style="fill:none;stroke:#2C3447;stroke-width:1.2109;stroke-miterlimit:10;" x1="1165.381" y1="1447.682" x2="1163.404" y2="1389.417"/>
			<path style="fill:#403534;" d="M1198.457,1954.415l6.806,28.014H1103.66l0,0c-3.289-14.339,7.604-28.014,22.316-28.014h0.063
				H1198.457z"/>
			<path style="fill:#403534;" d="M1077.373,1951.926v30.503h-106.42l0.13-2.515c0.811-15.685,13.766-27.987,29.472-27.987h0
				H1077.373z"/>
			
				<path style="fill:none;stroke:#FFFFFF;stroke-width:0.6443;stroke-linecap:round;stroke-linejoin:round;stroke-miterlimit:10;" d="
				M999.027,1957.993c0,0-2.317-10.135-8.036-7.384c-5.719,2.751,7.674,7.746,7.674,7.746l-7.963,5.502"/>
			
				<path style="fill:none;stroke:#FFFFFF;stroke-width:0.6443;stroke-linecap:round;stroke-linejoin:round;stroke-miterlimit:10;" d="
				M999.027,1957.993c0,0,2.317-10.135,8.036-7.384c5.719,2.751-7.674,7.746-7.674,7.746l7.964,5.502"/>
			
				<path style="fill:none;stroke:#FFFFFF;stroke-width:0.6443;stroke-linecap:round;stroke-linejoin:round;stroke-miterlimit:10;" d="
				M1126.764,1961.628c0,0-2.317-10.135-8.036-7.384s7.674,7.746,7.674,7.746l-7.964,5.502"/>
			
				<path style="fill:none;stroke:#FFFFFF;stroke-width:0.6443;stroke-linecap:round;stroke-linejoin:round;stroke-miterlimit:10;" d="
				M1126.764,1961.628c0,0,2.317-10.135,8.036-7.384c5.719,2.751-7.674,7.746-7.674,7.746l7.964,5.502"/>
			<path style="fill:#93ACBF;" d="M1215.152,1286.7c0,0-4.153,43.423-10.876,108.996c-6.723,65.573-6.975,174.336-71.121,179.001
				c0,0-6.994-12.296-29.775-8.056c0,0,19.795-10.262,34.923-33.771s22.541-221.788,22.541-221.788L1215.152,1286.7z"/>
			<polygon style="fill:#E5F0F8;" points="1211.566,1323.384 1206.438,1374.511 1222.74,1360.618 1221.561,1324.384 			"/>
			<path style="fill:#93ACBF;" d="M1298.659,1284.134c0,0-16.306,70.321-24.292,135.53c-7.986,65.21-5.277,128.27-25.824,166.561
				c0,0,82.415,14.826,82.225,48.068c0,0,23.233-25.623,23.434-60.717c0.201-35.095,13.708-266.891,13.708-266.891
				L1298.659,1284.134z"/>
			<path style="fill:#F9E181;" d="M1367.91,1515.432c-0.589,4.665,15.74,61.904-32.468,79.159
				c-48.207,17.255-117.251,54.577-71.066,107.449l77.384-27.991l83.876-79.458l-16.328-72.256L1367.91,1515.432z"/>
			<path style="fill:none;stroke:#F2BB16;stroke-width:3.8445;stroke-miterlimit:10;" d="M1349.245,1587.471
				c0,0,55.863-26.025,51.899-73.594c-3.499-41.987-33.234-50.54-33.234-50.54"/>
			<path style="fill:#FDAE97;" d="M1100.723,1479.249c-0.313,3.275,17.705,11.81,32.145,13.62
				c12.235,1.548,40.826,2.08,49.254,2.177l7.428-48.455c-4.758-1.367-14.207-5.104-18.814-6.132
				c-12.261-2.734-37.684-3.916-39.076,0.483c-1.413,4.346,19.696,9.793,17.605,11.151c-2.092,1.357-19.893,2.13-26.56-0.422
				c-6.719-2.531-20.166-10.301-23.677-8.05c-3.564,2.274-1.636,8.138-1.636,8.138s-4.804-3.568-6.481-0.161
				c-1.677,3.406,4.407,10.824,4.407,10.824s-2.418-2.271-3.334,1.932c-0.896,4.255,11.927,12.16,11.927,12.16
				S1100.962,1475.943,1100.723,1479.249z"/>
			<path style="fill:#93ACBF;" d="M1345.789,1529.11L1345.789,1529.11c21.796,1.18,40.594-15.688,41.774-37.484l7.843-144.897
				c1.18-21.796-15.688-40.594-37.484-41.774l0,0c-21.796-1.18-40.594,15.688-41.774,37.484l-7.843,144.897
				C1307.126,1509.132,1323.994,1527.93,1345.789,1529.11z"/>
			<path style="fill:#93ACBF;" d="M1387.708,1494.712c-2.02,21.025-18.959,36.808-37.553,34.969l-176.079-28.617l11.767-75.407
				l167.327,21.459C1371.765,1448.955,1389.797,1473.635,1387.708,1494.712z"/>
			<polyline style="fill:none;stroke:#586773;stroke-width:1.9222;stroke-miterlimit:10;" points="1272.489,1436.77 
				1310.777,1441.68 1314.412,1374.511 			"/>
		</g>
		<g>
			<polygon style="fill:#BBDBF3;" points="537.729,1926.194 617.798,1959.308 537.729,1945.519 			"/>
			<rect x="471.473" y="1653.807" style="fill:#BBDBF3;" width="22.085" height="291.712"/>
			<rect x="427.302" y="1926.194" style="fill:#BBDBF3;" width="110.427" height="19.325"/>
			<path style="fill:#BBDBF3;" d="M347.233,1982.429L347.233,1982.429c4.098,0,7.419-3.322,7.419-7.419v-8.282
				c0-4.098-3.322-7.419-7.419-7.419h0c-4.098,0-7.419,3.322-7.419,7.419v8.282C339.814,1979.107,343.136,1982.429,347.233,1982.429
				z"/>
			<path style="fill:#BBDBF3;" d="M617.798,1982.429L617.798,1982.429c4.098,0,7.419-3.322,7.419-7.419v-8.282
				c0-4.098-3.322-7.419-7.419-7.419l0,0c-4.098,0-7.419,3.322-7.419,7.419v8.282C610.379,1979.107,613.7,1982.429,617.798,1982.429
				z"/>
			<polygon style="fill:#BBDBF3;" points="427.302,1926.194 347.233,1959.308 427.302,1945.519 			"/>
			<path style="fill:#F9E181;" d="M500.572,1403.262c0,0-197.249-9.516-204.876,131.683s131.831,210.368,253.389,164.609
				C717.989,1635.973,705.745,1435.243,500.572,1403.262z"/>
			<polygon style="fill:#A06753;" points="724.861,1939.59 781.071,1940.233 769.623,1855.773 703.941,1878.466 			"/>
			<polygon style="fill:#322A28;" points="722.946,1982.831 749.476,1982.705 751.097,1965.571 765.627,1982.629 828.216,1982.332 
				781.071,1940.233 724.861,1939.59 			"/>
			<path style="fill:#0775EF;" d="M661.952,1586.194c-29.718,10.667-45.162,43.405-34.496,73.123l74.726,254.176l88.504-15.49
				l-52.347-261.327l-0.022,0.004c-0.313-5.332-1.346-10.708-3.242-15.991C724.408,1590.972,691.67,1575.527,661.952,1586.194z"/>
			<path style="fill:#322A28;" d="M380.719,1288.024c0,0-24.322-30.998,11.886-46.076c18.264-7.606,23.437-17.464,18.317-31.28
				c-5.12-13.816,0.6-28.81,15.086-36.807c14.486-7.997,20.724-31.79,50.961-17.831c0,0,38.131,14.959,36.591,38.254
				c-1.54,23.295-1.229,21.318,6.907,37.166c8.136,15.847-8.818,34.801-9.452,44.305c-0.619,9.287,3.455,12.269,3.455,12.269
				H380.719z"/>
			<path style="fill:#E7888B;" d="M669.683,1448.398L669.683,1448.398c-12.525,15.189-35.2,17.369-50.389,4.844l-114.172-94.144
				c-15.189-12.525-17.369-35.2-4.845-50.389l0,0c12.525-15.189,35.2-17.369,50.389-4.844l114.172,94.144
				C680.028,1410.534,682.208,1433.209,669.683,1448.398z"/>
			<path style="fill:#088CFC;" d="M380.291,1542.564c0,0-10.431,11.854-14.58,21.521c-4.149,9.667,45.389,4.336,45.389,4.336
				l-5.4-46.439L380.291,1542.564z"/>
			<path style="fill:#0775EF;" d="M728.01,1652.982l-2.321,7.492c-9.187,29.651-40.964,46.395-70.615,37.208l-183.943-56.992
				c-29.651-9.187-46.395-40.964-37.208-70.615l2.321-7.492c9.187-29.651,40.964-46.395,70.615-37.208l183.943,56.991
				C720.453,1591.554,737.197,1623.331,728.01,1652.982z"/>
			<path style="fill:#088CFC;" d="M695.18,1689.419L695.18,1689.419c-11.345,31.2-46.154,47.446-77.355,36.101l-217.929-79.242
				c-31.2-11.345-47.445-46.154-36.101-77.355l0,0c11.345-31.2,46.154-47.446,77.355-36.101l217.929,79.242
				C690.28,1623.409,706.525,1658.219,695.18,1689.419z"/>
			<path style="fill:#E7888B;" d="M431.525,1291.016l-62.642,29.502c0,0,13.928,160.127,15.368,177.767
				c1.44,17.64-3.96,44.279-3.96,44.279s44.055,6.929,102.623,5.443c43.206-1.096,48.581-14.999,48.581-14.999
				s-2.885-76.843,7.195-100.963c6.829-16.34,11.52-26.28,7.56-45c-3.96-18.72-16.507-58.262-11.827-90.661l-39.293-4.017
				L431.525,1291.016z"/>
			<path style="fill:#A06753;" d="M495.144,1219.544v72.837c0,0,0,0.89-0.178,2.314c-0.748,5.945-4.592,21.217-24.386,21.004
				c-18.084-0.214-30.722-13.492-36.098-20.47c-1.958-2.492-2.955-4.201-2.955-4.201l9.113-71.484H495.144z"/>
			<polygon style="fill:#824C3A;" points="495.129,1292.368 462.746,1251.021 495.129,1244.785 			"/>
			<path style="fill:#A06753;" d="M496.629,1263.71c-12.895,4.202-30.771-0.917-43.42-14.201
				c-12.649-13.283-41.068-63.016-3.136-86.18c37.975-23.153,60.399,15.181,61.382,21.115c0,0,0.376,20.918,0.605,35.661
				c0.086,3.75,0.143,7.083,0.182,9.594c-0.013,0.406,0.028,0.78,0.026,1.143C512.449,1242.39,509.513,1259.551,496.629,1263.71z"/>
			<path style="fill:#322A28;" d="M476.969,1156.03c0,0,34.585,1.117,39.025,34.254l-17.56,0.852c0,0,0.277-11.363-8.551-16.336
				c0,0,6.219,8.677,4.091,17.17l-20.339,2.016c0,0-0.892-12.34,0.198-17.217c0,0-4.915,11.278-5.071,18.013l-14.314,3.921
				c0,0,0.095,11.525-5.09,15.664c-5.184,4.139-12.106,22.623-12.106,22.623s-14.853-40.743-8.288-53.721
				S447.276,1149.454,476.969,1156.03z"/>
			<path style="fill:#A06753;" d="M447.108,1224.059c2.239,6.807,2.184,11.181-3.161,12.939c-5.344,1.758-12.746-1.123-14.985-7.93
				c-2.239-6.807,0.278-13.751,5.622-15.509C439.929,1211.801,444.869,1217.252,447.108,1224.059z"/>
			<path style="fill:none;stroke:#724638;stroke-width:0.89;stroke-linecap:round;stroke-linejoin:round;stroke-miterlimit:10;" d="
				M433.563,1220.413c0,0,8.57-0.409,9.315,6.843c0,0-2.809-2.577-7.091-1.814"/>
			<path style="fill:#322A28;" d="M478.78,1214.223c-0.017,2.769,1.422,5.022,3.213,5.032c1.791,0.011,3.256-2.225,3.273-4.993
				c0.017-2.769-1.422-5.022-3.213-5.032C480.262,1209.219,478.797,1211.455,478.78,1214.223z"/>
			<path style="fill:#322A28;" d="M502.447,1212.217c-0.017,2.769,1.422,5.022,3.213,5.032c1.791,0.011,3.257-2.225,3.273-4.993
				s-1.422-5.022-3.213-5.032C503.929,1207.213,502.463,1209.448,502.447,1212.217z"/>
			<path style="fill:#FFFFFF;" d="M487.534,1246.372c3.266,1.133,6.833-0.596,7.966-3.863l-11.828-4.103
				C482.539,1241.673,484.268,1245.239,487.534,1246.372z"/>
			<path style="fill:none;stroke:#2C3447;stroke-width:1.3213;stroke-miterlimit:10;" d="M472.507,1208.623
				c0,0,5.599-6.866,12.062-4.331"/>
			<path style="fill:none;stroke:#2C3447;stroke-width:1.3213;stroke-miterlimit:10;" d="M502.984,1203.165
				c0,0,4.042-0.728,8.314,3.669"/>
			<path style="fill:none;stroke:#2C3447;stroke-width:1.3213;stroke-miterlimit:10;" d="M494.08,1212.563
				c0,0,0.235,13.719,8.275,15.446c0,0-2.575,2.315-5.79,3.255"/>
			<path style="fill:#A14C53;" d="M483.159,1229.323c-0.674,2.636-5.182,3.759-10.068,2.509c-4.886-1.25-8.3-4.4-7.625-7.036
				c0.674-2.636,5.182-3.759,10.068-2.509C480.419,1223.537,483.833,1226.687,483.159,1229.323z"/>
			<path style="fill:#A14C53;" d="M512.241,1229.698c-2.938,0.112-5.294-0.809-5.882-2.596c-0.767-2.333,1.706-5.246,5.7-6.997
				C512.145,1223.855,512.202,1227.188,512.241,1229.698z"/>
			<path style="fill:#F9E181;" d="M379.391,1505.896c0.619,4.903-16.541,65.056,34.121,83.19s123.221,57.356,74.685,112.92
				l-81.324-29.417l-88.147-83.504l17.16-75.935L379.391,1505.896z"/>
			<path style="fill:none;stroke:#F2BB16;stroke-width:4.0402;stroke-miterlimit:10;" d="M399.006,1581.603
				c0,0-58.707-27.35-54.542-77.342c3.677-44.125,34.926-53.113,34.926-53.113"/>
			<path style="fill:#A06753;" d="M612.885,1449.987c-13.805-14.382-14.112-35.705-0.682-47.386l129.751-86.089
				c3.669-3.77,7.704-8.235,10.573-12.317c6.672-9.489,27.974-33.252,31.527-30.332c3.553,2.921-7.593,21.993-5.035,22.048
				c2.557,0.055,14.154-12.143,18.667-17.714c4.513-5.571,12.177-18.982,16.484-18.92c4.307,0.063,5.804,5.919,5.804,5.919
				s2.268-5.454,5.563-3.475c3.296,1.98,1.922,11.281,1.922,11.281s0.937-3.156,3.995-0.11c3.058,3.046-3.975,16.247-3.975,16.247
				s2.314-1.996,4.3,0.618s-9.26,18.996-20.951,27.949c-10.436,7.991-37.433,24.376-43.112,27.802l-105.315,109.387
				C648.974,1466.578,626.691,1464.368,612.885,1449.987z"/>
			<path style="fill:none;stroke:#FFFFFF;stroke-width:1.5071;stroke-miterlimit:10;" d="M445.5,1239.268
				c-0.022,2.91-2.398,5.251-5.308,5.23c-2.91-0.022-5.251-2.398-5.23-5.308s2.398-5.251,5.308-5.23
				C443.181,1233.982,445.522,1236.358,445.5,1239.268z"/>
			<path style="fill:none;stroke:#2C3447;stroke-width:1.8298;stroke-miterlimit:10;" d="M538.171,1433.43
				c0,0,11.282-23.733,9.45-36.059c-1.832-12.326-11.874-45.632-13.199-55.861"/>
			<polygon style="fill:#A06753;" points="539.644,1939.578 595.854,1940.222 607.786,1902.112 546.381,1897.439 			"/>
			<polygon style="fill:#322A28;" points="537.729,1982.82 564.259,1982.694 565.88,1965.56 580.411,1982.618 643,1982.321 
				595.854,1940.222 539.644,1939.578 			"/>
			<path style="fill:#088CFF;" d="M652.982,1610.326c-31.095-5.483-60.747,15.28-66.229,46.374l-53.118,249.823l88.258,17.04
				l72.367-231.508l-0.021-0.007c2.374-4.785,4.144-9.966,5.119-15.493C704.84,1645.461,684.077,1615.809,652.982,1610.326z"/>
			<path style="fill:#E7888B;" d="M482.719,1508.421L482.719,1508.421c-16.814,10.241-38.949,4.863-49.19-11.951l-76.975-126.385
				c-10.241-16.814-4.862-38.949,11.952-49.19h0c16.814-10.241,38.949-4.862,49.19,11.952l76.975,126.385
				C504.911,1476.045,499.533,1498.18,482.719,1508.421z"/>
			
				<line style="fill:none;stroke:#2C3447;stroke-width:1.8298;stroke-miterlimit:10;" x1="461.815" y1="1405.285" x2="436.177" y2="1363.19"/>
			<path style="fill:#A06753;" d="M425.766,1473.917c2.005-21.746,19.35-38.09,38.545-36.32l162.851,15.037
				c5.72,0.047,17.463,5.843,23.285,10.546c9.892,7.989,17.75,6.971,17.878,11.978c0.127,5.007,0.999,11.365,2.776,13.424
				c1.777,2.058,9.671,1.27,7.716,3.003c-6.417,5.686-13.406,11.116-28.166,5.205c-14.418-5.774-21.663-8.743-28.533-10.633
				l-165.098,30.518C437.826,1514.902,423.762,1495.662,425.766,1473.917z"/>
			<path style="fill:#BBDBF3;" d="M812.227,1407.854c0,0,5.478-11.048-18.705-26.703l-71.308,71.372L812.227,1407.854z"/>
			<path style="fill:#FFFFFF;" d="M633.978,1474.273l100.976-94.274c0,0,38.077,33.445,77.274,27.855l-127.742,82.936
				C684.486,1490.79,648.612,1492.687,633.978,1474.273z"/>
			<path style="fill:#A06753;" d="M652.31,1489.406c0,0,13.881-10.747,23.655-19.81c2.307-2.14,6.253-0.653,3.428,3.141
				c-3.325,4.464-12.798,15.473-12.798,15.473s7.901-6.702,11.243-9.853c3.875-3.654,6.2-1.171,3.698,1.98
				c-3.089,3.889-7.531,9.793-7.531,9.793s7.345-7.099,9.388-5.756c2.043,1.343-4.577,7.211-4.577,7.211l-18.644,5.423
				L652.31,1489.406z"/>
			<path style="fill:#A06753;" d="M647.767,1486.871c0,0,8.61-7.112,15.501-14.777c2.646-2.943,4.896-4.694,6.798-3.11
				c1.049,0.874-0.636,3.392-2.756,6.35c-5.315,7.412-12.991,14.118-12.991,14.118L647.767,1486.871z"/>
		</g>
		<rect x="800.392" y="1515.214" style="fill:#93ACBF;" width="25.918" height="466.771"/>
		<rect x="408.826" y="1499.929" style="fill:#BBDBF3;" width="836.414" height="22.052"/>
		<path style="fill:#93ACBF;" d="M845.075,1538.436h-63.449c-1.646,0-2.98-1.334-2.98-2.98v-13.475h69.408v13.475
			C848.055,1537.102,846.721,1538.436,845.075,1538.436z"/>
		<path style="fill:#93ACBF;" d="M858.318,1982.429h-89.934v-9.611c0-1.077,0.873-1.949,1.949-1.949h86.036
			c1.077,0,1.949,0.873,1.949,1.949V1982.429z"/>
		<path style="fill:#93ACBF;" d="M843.191,1970.869H783.51v-9.611c0-1.077,0.873-1.949,1.95-1.949h55.782
			c1.077,0,1.949,0.873,1.949,1.949V1970.869z"/>
	</g>
	<g>
		<path style="fill:#40A87B;" d="M1936.658,1993.63c0,0,24.882-99.255,86.908-129.887c62.026-30.632,128.226,11.305,111.416,55.404
			c-14.495,38.026-74.099-8.73-120.474,9.656s-53.685,64.827-53.685,64.827H1936.658z"/>
		<path style="fill:none;stroke:#6ADB6A;stroke-width:2.7949;stroke-miterlimit:10;" d="M2122.993,1892.702
			c0,0-66.57-37.938-115.96-2.863c-49.39,35.074-65.021,103.792-65.021,103.792"/>
		
			<line style="fill:none;stroke:#6ADB6A;stroke-width:2.7949;stroke-miterlimit:10;" x1="2112.256" y1="1874.959" x2="2096.768" y2="1881.712"/>
		
			<line style="fill:none;stroke:#6ADB6A;stroke-width:2.7949;stroke-miterlimit:10;" x1="2089.887" y1="1860.491" x2="2059.038" y2="1874.959"/>
		
			<line style="fill:none;stroke:#6ADB6A;stroke-width:2.7949;stroke-miterlimit:10;" x1="2043.538" y1="1860.491" x2="2027.489" y2="1879.45"/>
		
			<line style="fill:none;stroke:#6ADB6A;stroke-width:2.7949;stroke-miterlimit:10;" x1="2013.117" y1="1873.197" x2="2005.902" y2="1890.656"/>
		
			<line style="fill:none;stroke:#6ADB6A;stroke-width:2.7949;stroke-miterlimit:10;" x1="2104.511" y1="1916.86" x2="2080.735" y2="1877.526"/>
		
			<line style="fill:none;stroke:#6ADB6A;stroke-width:2.7949;stroke-miterlimit:10;" x1="2062.507" y1="1911.224" x2="2040.7" y2="1876.202"/>
		
			<line style="fill:none;stroke:#6ADB6A;stroke-width:2.7949;stroke-miterlimit:10;" x1="2025.464" y1="1905.855" x2="1992.681" y2="1901.781"/>
		
			<line style="fill:none;stroke:#6ADB6A;stroke-width:2.7949;stroke-miterlimit:10;" x1="1987.298" y1="1925.719" x2="1968.506" y2="1931.888"/>
	</g>
	<g>
		<path style="fill:#6ADB6A;" d="M1898.925,1993.92c0,0-17.558-332.699,141.351-289.825
			c158.908,42.873-123.958,222.182-123.717,289.825H1898.925z"/>
		<path style="fill:none;stroke:#40A87B;stroke-width:2.7949;stroke-miterlimit:10;" d="M1905.346,1993.92
			c0,0,5.548-173.824,118.823-259.774"/>
		
			<line style="fill:none;stroke:#40A87B;stroke-width:2.7949;stroke-miterlimit:10;" x1="1974.488" y1="1784.547" x2="1977.318" y2="1724.607"/>
		
			<line style="fill:none;stroke:#40A87B;stroke-width:2.7949;stroke-miterlimit:10;" x1="2063.36" y1="1759.71" x2="1986.796" y2="1769.69"/>
		
			<line style="fill:none;stroke:#40A87B;stroke-width:2.7949;stroke-miterlimit:10;" x1="2033.585" y1="1810.868" x2="1952.632" y2="1820.3"/>
		
			<line style="fill:none;stroke:#40A87B;stroke-width:2.7949;stroke-miterlimit:10;" x1="1993.108" y1="1861.564" x2="1930.582" y2="1870.4"/>
		
			<line style="fill:none;stroke:#40A87B;stroke-width:2.7949;stroke-miterlimit:10;" x1="1924.583" y1="1814.195" x2="1938.915" y2="1849.014"/>
		
			<line style="fill:none;stroke:#40A87B;stroke-width:2.7949;stroke-miterlimit:10;" x1="1948.133" y1="1757.684" x2="1960.351" y2="1806.705"/>
		
			<line style="fill:none;stroke:#40A87B;stroke-width:2.7949;stroke-miterlimit:10;" x1="1911.205" y1="1872.323" x2="1922.623" y2="1895.08"/>
		
			<line style="fill:none;stroke:#40A87B;stroke-width:2.7949;stroke-miterlimit:10;" x1="1960.351" y1="1908.56" x2="1915.546" y2="1922.686"/>
	</g>
	<path style="fill:#0775EF;" d="M2023.642,2022.417H270.771c-9.952,0-18.019-8.068-18.019-18.019v-4.035
		c0-9.952,8.068-18.019,18.019-18.019h1752.871c9.952,0,18.019,8.068,18.019,18.019v4.035
		C2041.662,2014.349,2033.594,2022.417,2023.642,2022.417z"/>
	<g>
		<path style="fill:#93ACBF;" d="M1918.307,1777.983v185.099c0,10.808-8.761,19.569-19.569,19.569h-468.877
			c-10.808,0-19.569-8.761-19.569-19.569v-185.099H1918.307z"/>
		<path style="fill:#586773;" d="M1429.862,1666.514h468.877c10.808,0,19.569,8.761,19.569,19.569v103.476h-508.015v-103.476
			C1410.293,1675.275,1419.054,1666.514,1429.862,1666.514z"/>
		<path style="fill:#586773;" d="M1582.261,1679.184c0,21.056,8.629,40.247,22.574,54.193
			c13.945,13.945,33.137,22.574,54.192,22.574h10.563c42.18,0,76.697-34.586,76.697-76.767c0-21.125-8.629-40.316-22.505-54.192
			c-13.945-13.945-33.068-22.575-54.192-22.575h-10.563C1616.848,1602.418,1582.261,1636.935,1582.261,1679.184z M1601.867,1679.184
			c0-31.549,25.612-57.161,57.161-57.161h10.563c31.48,0,57.161,25.612,57.161,57.161c0,31.549-25.681,57.161-57.161,57.161h-10.563
			C1627.479,1736.345,1601.867,1710.734,1601.867,1679.184z"/>
		<path style="fill:#93ACBF;" d="M1429.862,1654.938h468.877c10.808,0,19.569,8.761,19.569,19.569v103.476h-508.015v-103.476
			C1410.293,1663.699,1419.054,1654.938,1429.862,1654.938z"/>
		<g>
			<polyline style="fill:none;stroke:#586773;stroke-width:3.4517;stroke-linecap:round;stroke-linejoin:round;" points="
				1891.834,1963.083 1898.738,1963.083 1898.738,1956.179 			"/>
			
				<line style="fill:none;stroke:#586773;stroke-width:3.4517;stroke-linecap:round;stroke-linejoin:round;stroke-dasharray:14.4616,14.4616;" x1="1898.738" y1="1941.718" x2="1898.738" y2="1688.639"/>
			<polyline style="fill:none;stroke:#586773;stroke-width:3.4517;stroke-linecap:round;stroke-linejoin:round;" points="
				1898.738,1681.409 1898.738,1674.505 1891.834,1674.505 			"/>
			
				<line style="fill:none;stroke:#586773;stroke-width:3.4517;stroke-linecap:round;stroke-linejoin:round;stroke-dasharray:13.79,13.79;" x1="1878.044" y1="1674.505" x2="1443.659" y2="1674.512"/>
			<polyline style="fill:none;stroke:#586773;stroke-width:3.4517;stroke-linecap:round;stroke-linejoin:round;" points="
				1436.764,1674.512 1429.861,1674.512 1429.861,1681.415 			"/>
			
				<line style="fill:none;stroke:#586773;stroke-width:3.4517;stroke-linecap:round;stroke-linejoin:round;stroke-dasharray:14.4613,14.4613;" x1="1429.861" y1="1695.876" x2="1429.861" y2="1948.949"/>
			<polyline style="fill:none;stroke:#586773;stroke-width:3.4517;stroke-linecap:round;stroke-linejoin:round;" points="
				1429.861,1956.179 1429.861,1963.083 1436.764,1963.083 			"/>
			
				<line style="fill:none;stroke:#586773;stroke-width:3.4517;stroke-linecap:round;stroke-linejoin:round;stroke-dasharray:13.79,13.79;" x1="1450.554" y1="1963.083" x2="1884.939" y2="1963.083"/>
		</g>
		<path style="fill:#586773;" d="M1664.3,1818.794L1664.3,1818.794c11.223,0,20.406-9.183,20.406-20.406v-37.563
			c0-11.223-9.183-20.406-20.406-20.406l0,0c-11.223,0-20.406,9.183-20.406,20.406v37.563
			C1643.894,1809.611,1653.077,1818.794,1664.3,1818.794z"/>
		<path style="fill:#F9E181;" d="M1643.926,1754.523v37.554c0,11.209,9.139,20.419,20.348,20.419c11.28,0,20.419-9.21,20.419-20.419
			v-37.554c0-8.496-5.212-15.849-12.708-18.919c-2.356-0.928-4.997-1.499-7.71-1.499c-2.713,0-5.284,0.571-7.711,1.499
			c-2.499,1.071-4.783,2.57-6.64,4.498C1646.211,1743.814,1643.926,1748.955,1643.926,1754.523z"/>
		<path style="fill:#F2BB16;" d="M1643.926,1754.523v1.428h40.767v-1.428c0-8.496-5.212-15.849-12.708-18.919h-15.421
			c-2.499,1.071-4.783,2.57-6.64,4.498C1646.211,1743.814,1643.926,1748.955,1643.926,1754.523z"/>
		<path style="fill:#586773;" d="M1633.344,1751.993h61.912c5.607,0,10.152-4.545,10.152-10.152l0,0
			c0-5.607-4.545-10.152-10.152-10.152h-61.912c-5.607,0-10.152,4.545-10.152,10.152l0,0
			C1623.192,1747.448,1627.737,1751.993,1633.344,1751.993z"/>
		<path style="fill:#F2BB16;" d="M1678.112,1797.944L1678.112,1797.944c0.578,0,1.05-0.473,1.05-1.05v-35.697
			c0-0.577-0.472-1.05-1.05-1.05l0,0c-0.577,0-1.05,0.473-1.05,1.05v35.697C1677.062,1797.472,1677.535,1797.944,1678.112,1797.944z
			"/>
		<path style="fill:#F2BB16;" d="M1673.508,1800.641L1673.508,1800.641c0.578,0,1.05-0.472,1.05-1.05v-38.394
			c0-0.577-0.472-1.05-1.05-1.05l0,0c-0.577,0-1.05,0.473-1.05,1.05v38.394C1672.458,1800.168,1672.931,1800.641,1673.508,1800.641z
			"/>
		<path style="fill:#F2BB16;" d="M1668.904,1804.139L1668.904,1804.139c0.577,0,1.05-0.472,1.05-1.05v-41.892
			c0-0.577-0.472-1.05-1.05-1.05l0,0c-0.578,0-1.05,0.473-1.05,1.05v41.892C1667.854,1803.666,1668.327,1804.139,1668.904,1804.139z
			"/>
		<path style="fill:#F2BB16;" d="M1664.3,1807.4L1664.3,1807.4c0.577,0,1.05-0.472,1.05-1.05v-45.153c0-0.578-0.472-1.05-1.05-1.05
			l0,0c-0.578,0-1.05,0.473-1.05,1.05v45.153C1663.25,1806.927,1663.723,1807.4,1664.3,1807.4z"/>
		<path style="fill:#F2BB16;" d="M1659.696,1804.139L1659.696,1804.139c0.578,0,1.05-0.472,1.05-1.05v-41.892
			c0-0.577-0.472-1.05-1.05-1.05l0,0c-0.578,0-1.05,0.473-1.05,1.05v41.892C1658.646,1803.666,1659.119,1804.139,1659.696,1804.139z
			"/>
		<path style="fill:#F2BB16;" d="M1655.092,1800.641L1655.092,1800.641c0.578,0,1.05-0.472,1.05-1.05v-38.394
			c0-0.577-0.472-1.05-1.05-1.05l0,0c-0.577,0-1.05,0.473-1.05,1.05v38.394C1654.042,1800.168,1654.515,1800.641,1655.092,1800.641z
			"/>
		<path style="fill:#F2BB16;" d="M1650.488,1797.944L1650.488,1797.944c-0.578,0-1.05-0.473-1.05-1.05v-35.697
			c0-0.577,0.473-1.05,1.05-1.05l0,0c0.577,0,1.05,0.473,1.05,1.05v35.697C1651.538,1797.472,1651.066,1797.944,1650.488,1797.944z"
			/>
		<path style="fill:#586773;" d="M1590.565,1944.218h-96.768c-20.996,0-38.017-17.021-38.017-38.017v-87.407h172.803v87.407
			C1628.582,1927.197,1611.562,1944.218,1590.565,1944.218z"/>
		<path style="fill:#586773;" d="M1738.035,1944.218h96.768c20.996,0,38.017-17.021,38.017-38.017v-87.407h-172.803v87.407
			C1700.017,1927.197,1717.038,1944.218,1738.035,1944.218z"/>
	</g>
	<path style="fill:#E5F0F8;" d="M1599.895,608.873h-50.913c-1.243-3.711-3.33-7.042-6.036-9.747
		c-4.539-4.539-10.764-7.348-17.64-7.348h-3.438c-10.978,0-20.369,7.186-23.695,17.096h-50.899c-3.518,0-6.37,2.852-6.37,6.37v3.768
		v29.914v3.768v56.482c0,3.518,2.852,6.37,6.37,6.37h152.62c3.518,0,6.37-2.852,6.37-6.37v-56.482v-3.768v-29.914v-3.768
		C1606.265,611.725,1603.413,608.873,1599.895,608.873z M1521.869,598.16h3.438c7.428,0,13.846,4.391,16.825,10.714h-37.091
		C1508.014,602.551,1514.424,598.16,1521.869,598.16z"/>
	<g>
		<g>
			<polygon style="fill:#F2BB16;" points="523.465,689.45 426.601,753.838 329.755,689.45 			"/>
			<polygon style="fill:#F2BB16;" points="523.465,689.45 523.465,818.226 329.755,818.226 329.755,689.45 426.601,753.838 			"/>
			<polygon style="fill:#F2BB16;" points="329.755,818.226 426.601,753.838 523.465,818.226 			"/>
		</g>
		<g>
			<polygon style="fill:#F9ECB8;" points="530.868,689.45 434.004,753.838 337.158,689.45 			"/>
			<polygon style="fill:#F9E181;" points="530.868,689.45 530.868,818.226 337.158,818.226 337.158,689.45 434.004,753.838 			"/>
			<polygon style="fill:#F9ECB8;" points="337.158,818.226 434.004,753.838 530.868,818.226 			"/>
		</g>
		<path style="fill:#40A87B;" d="M546.189,689.446c0,4.009-1.533,7.667-4.073,10.414c-2.795,3.019-6.788,4.919-11.244,4.919
			c-8.465,0-15.333-6.868-15.333-15.333c0-5.957,3.402-11.132,8.385-13.656c2.092-1.07,4.44-1.661,6.948-1.661
			C539.338,674.129,546.189,680.981,546.189,689.446z"/>
		<path style="fill:#6ADB6A;" d="M546.189,689.446c0,4.009-1.533,7.667-4.073,10.414c-2.092,1.07-4.456,1.677-6.964,1.677
			c-8.465,0-15.333-6.852-15.333-15.317c0-4.025,1.565-7.698,4.105-10.43c2.092-1.07,4.44-1.661,6.948-1.661
			C539.338,674.129,546.189,680.981,546.189,689.446z"/>
	</g>
	<g>
		<path style="fill:#088CFC;" d="M1898.514,1509.056c0-31.141-25.245-56.386-56.386-56.386c-31.142,0-56.387,25.245-56.387,56.386
			c0,11.036,3.219,21.298,8.698,29.991l-0.042,0.026l47.731,76.397l47.731-76.397l-0.042-0.026
			C1895.296,1530.353,1898.514,1520.091,1898.514,1509.056z"/>
		<path style="fill:#FFFFFF;" d="M1842.127,1556.302c-26.051,0-47.245-21.196-47.245-47.247s21.193-47.245,47.245-47.245
			c26.052,0,47.245,21.193,47.245,47.245S1868.179,1556.302,1842.127,1556.302z"/>
		<polygon style="fill:#088CFC;" points="1867.513,1478.932 1838.376,1528.385 1838.097,1528.862 1822.538,1505.006 
			1812.127,1511.801 1833.176,1544.058 1838.376,1543.933 1843.742,1543.809 1878.234,1485.22 		"/>
	</g>
	<g>
		<path style="fill:#E5F0F8;" d="M1827.111,909.458v2.275c0,1.126,0.913,2.038,2.038,2.038c1.126,0,2.038-0.913,2.038-2.038v-2.275
			c0-1.126-0.913-2.038-2.038-2.038C1828.023,907.42,1827.111,908.333,1827.111,909.458z"/>
		<path style="fill:#E5F0F8;" d="M1752.782,909.458v2.275c0,1.126,0.913,2.038,2.038,2.038c1.126,0,2.038-0.913,2.038-2.038v-2.275
			c0-1.126-0.912-2.038-2.038-2.038C1753.695,907.42,1752.782,908.333,1752.782,909.458z"/>
		<path style="fill:#E5F0F8;" d="M1849.37,791.515c-18.581-2.086-38.82,0.613-42.281-10.807
			c-3.792-12.514-1.327-35.266-0.758-49.296c0.569-14.031,5.878-42.66-12.324-53.657c-18.202-10.997-39.55-7.714-52.898-1.517
			c-10.618,4.93-14.599,12.134-14.599,25.154c0,14.852,21.994,41.206,20.982,70.531c-0.23,6.676-0.682,12.867-1.075,18.468h0l0,0
			c-1.331,18.999-1.965,31.127,9.164,31.713c4.922,0.259,15.64,0.341,27.619,0.337v5.082h5.751v70.801h-12.134l-21.996,9.097
			l21.996-3.788h12.134h6.067h12.134l21.996,3.788l-21.996-9.097h-12.134v-70.801h5.751v-5.137
			c17.605-0.096,33.307-0.281,33.307-0.281h28.44C1862.516,822.104,1867.951,793.601,1849.37,791.515z"/>
	</g>
	<g>
		<path style="fill:#FFFFFF;" d="M1652.768,1476.005c0,41.898-33.973,75.871-75.871,75.871c-22.853,0-43.342-10.106-57.225-26.109
			c-11.642-13.301-18.645-30.717-18.645-49.762c0-41.898,33.973-75.871,75.871-75.871
			C1618.795,1400.134,1652.768,1434.107,1652.768,1476.005z"/>
		<path style="fill:#E5F0F8;" d="M1576.897,1473.148c-32.682-1.843-49.178,27.707-57.225,52.618
			c13.884,16.003,34.372,26.109,57.225,26.109c22.853,0,43.342-10.106,57.225-26.109
			C1626.075,1500.855,1609.58,1471.305,1576.897,1473.148z"/>
		<path style="fill:#E5F0F8;stroke:#FFFFFF;stroke-width:3.1936;stroke-miterlimit:10;" d="M1604.517,1449.15
			c0,22.453-12.364,45.96-27.615,45.96c-15.251,0-27.615-23.507-27.615-45.96s12.364-35.348,27.615-35.348
			C1592.153,1413.802,1604.517,1426.698,1604.517,1449.15z"/>
	</g>
</g>
</svg>
